<svg width="84" height="86" viewBox="0 0 84 86" fill="none" xmlns="http://www.w3.org/2000/svg">
<path d="M41.9863 85.0193H77.3942C79.1462 85.0193 80.8264 84.4611 82.0652 83.4675C83.304 82.4739 84 81.1263 84 79.7211V5.29818C84 4.60204 83.829 3.91272 83.4967 3.26963C83.1643 2.62653 82.6772 2.04227 82.0633 1.55023C81.4493 1.05819 80.7204 0.668024 79.9183 0.402027C79.1162 0.13603 78.2566 -0.000581173 77.3887 1.85835e-06H30.2132V1.75275C30.2387 1.93842 30.2516 2.12506 30.2519 2.31185V16.8219C30.2505 18.7999 29.2701 20.6964 27.5263 22.095C25.7825 23.4937 23.4179 24.2799 20.9518 24.2811H2.8661C2.67799 24.2811 2.47883 24.2811 2.31286 24.2811H-0.00524902V79.7477C-0.00524902 81.1529 0.690725 82.5005 1.92955 83.4941C3.16838 84.4877 4.84858 85.0459 6.60054 85.0459H42.0085L41.9863 85.0193ZM43.3197 67.017H20.2436C19.4161 67.017 18.6224 66.7533 18.0373 66.284C17.4521 65.8147 17.1233 65.1781 17.1233 64.5144C17.1233 63.8506 17.4521 63.2141 18.0373 62.7447C18.6224 62.2754 19.4161 62.0117 20.2436 62.0117H43.3362C44.1638 62.0117 44.9574 62.2754 45.5426 62.7447C46.1278 63.2141 46.4565 63.8506 46.4565 64.5144C46.4565 65.1781 46.1278 65.8147 45.5426 66.284C44.9574 66.7533 44.1638 67.017 43.3362 67.017H43.3197ZM66.4122 54.2419H20.2436C19.4161 54.2419 18.6224 53.9783 18.0373 53.5089C17.4521 53.0396 17.1233 52.403 17.1233 51.7393C17.1233 51.0755 17.4521 50.439 18.0373 49.9696C18.6224 49.5003 19.4161 49.2366 20.2436 49.2366H66.4178C67.2453 49.2366 68.039 49.5003 68.6242 49.9696C69.2093 50.439 69.5381 51.0755 69.5381 51.7393C69.5381 52.403 69.2093 53.0396 68.6242 53.5089C68.039 53.9783 67.2453 54.2419 66.4178 54.2419H66.4122ZM20.2436 35.6717H66.4178C67.2453 35.6717 68.039 35.9354 68.6242 36.4047C69.2093 36.8741 69.5381 37.5106 69.5381 38.1744C69.5381 38.8381 69.2093 39.4747 68.6242 39.944C68.039 40.4133 67.2453 40.677 66.4178 40.677H20.2436C19.4161 40.677 18.6224 40.4133 18.0373 39.944C17.4521 39.4747 17.1233 38.8381 17.1233 38.1744C17.1233 37.5106 17.4521 36.8741 18.0373 36.4047C18.6224 35.9354 19.4161 35.6717 20.2436 35.6717V35.6717Z" fill="#7F8F98"/>
<path d="M2.86592 21.2795H21.0014C22.4553 21.2714 23.8468 20.8045 24.8748 19.98C25.9029 19.1554 26.485 18.0394 26.4951 16.8732V2.30105C26.4952 2.00782 26.4227 1.71749 26.282 1.44685C26.1412 1.17621 25.935 0.930637 25.6752 0.724322C25.4154 0.518007 25.1072 0.355046 24.7683 0.244861C24.4295 0.134677 24.0668 0.079454 23.7013 0.0823863C23.3379 0.0820621 22.9782 0.140438 22.6436 0.254031C22.3091 0.367625 22.0064 0.534108 21.7538 0.743549L0.896335 17.4723C0.500028 17.7821 0.228677 18.1802 0.117401 18.615C0.00612442 19.0498 0.060046 19.5014 0.272141 19.9113C0.484235 20.3213 0.844771 20.6709 1.30716 20.9148C1.76955 21.1587 2.31254 21.2857 2.86592 21.2795Z" fill="#7F8F98"/>
</svg>
