<svg width="70" height="49" viewBox="0 0 70 49" fill="none" xmlns="http://www.w3.org/2000/svg">
<path d="M50.7484 24.4984C52.4793 24.4984 54.1713 23.9851 55.6105 23.0235C57.0497 22.062 58.1714 20.6952 58.8338 19.0962C59.4962 17.4971 59.6695 15.7376 59.3318 14.0401C58.9942 12.3425 58.1606 10.7832 56.9367 9.55939C55.7128 8.33553 54.1534 7.50207 52.4557 7.16441C50.7581 6.82675 48.9984 7.00005 47.3993 7.6624C45.8001 8.32474 44.4333 9.44639 43.4716 10.8855C42.51 12.3246 41.9967 14.0165 41.9967 15.7473C41.9933 16.8975 42.2173 18.037 42.6559 19.1003C43.0944 20.1636 43.739 21.1296 44.5523 21.9429C45.3657 22.7562 46.3318 23.4007 47.3952 23.8393C48.4585 24.2778 49.5981 24.5018 50.7484 24.4984ZM24.5033 20.9986C26.5797 20.998 28.6093 20.3817 30.3355 19.2278C32.0617 18.0739 33.407 16.4341 34.2014 14.5157C34.9957 12.5973 35.2033 10.4865 34.7981 8.45019C34.3928 6.41383 33.3929 4.54333 31.9246 3.07518C30.4564 1.60702 28.5857 0.607128 26.5493 0.201906C24.5128 -0.203316 22.4018 0.00432767 20.4833 0.798589C18.5648 1.59285 16.9249 2.93806 15.7709 4.66416C14.6169 6.39026 14.0006 8.41974 14 10.496C13.9939 11.8769 14.2615 13.2454 14.7872 14.5224C15.3128 15.7993 16.0863 16.9595 17.0628 17.936C18.0393 18.9125 19.1996 19.6858 20.4767 20.2115C21.7537 20.7371 23.1223 21.0047 24.5033 20.9986V20.9986ZM50.7484 31.4979C44.3442 31.4979 31.4967 34.7194 31.4967 41.1231V48.9967H70V41.1231C70.0065 34.7161 57.159 31.4979 50.7484 31.4979ZM24.5033 27.9981C16.3475 27.9981 0 32.0806 0 40.2489V49H24.5033V41.1231C24.5996 38.5221 25.4297 36.0015 26.8977 33.8522C28.3658 31.703 30.4119 30.0129 32.7998 28.977C30.0726 28.3822 27.294 28.0544 24.5033 27.9981V27.9981Z" fill="#7F8F98"/>
</svg>
