<svg width="53" height="34" viewBox="0 0 53 34" fill="none" xmlns="http://www.w3.org/2000/svg">
<path d="M52.9915 20.5952C52.9834 15.1787 50.1996 9.9821 45.2417 6.12839C40.2839 2.27468 33.5501 0.0733168 26.4954 0C19.4408 0.0733168 12.707 2.27468 7.74911 6.12839C2.79125 9.9821 0.00747075 15.1787 -0.000679234 20.5952C-0.114042 24.041 0.91132 27.4526 2.97974 30.5118H19.2094C20.1172 31.3103 21.237 31.9503 22.4938 32.3888C23.7505 32.8274 25.115 33.0543 26.4954 33.0543C27.8759 33.0543 29.2403 32.8274 30.4971 32.3888C31.7538 31.9503 32.8737 31.3103 33.7814 30.5118H50.0111C52.0795 27.4526 53.1049 24.041 52.9915 20.5952ZM46.3681 12.7134V15.2568L32.7888 24.156C32.9312 24.5743 33.0414 24.9986 33.1189 25.4268C33.1189 26.4325 32.7304 27.4157 32.0026 28.2519C31.2748 29.0881 30.2404 29.7399 29.0301 30.1247C27.8198 30.5096 26.4881 30.6103 25.2033 30.4141C23.9184 30.2179 22.7383 29.7336 21.812 29.0224C20.8857 28.3113 20.2548 27.4052 19.9993 26.4188C19.7437 25.4325 19.8749 24.41 20.3762 23.4809C20.8775 22.5517 21.7264 21.7575 22.8156 21.1988C23.9049 20.64 25.1854 20.3418 26.4954 20.3418C27.417 20.359 28.3221 20.5327 29.1458 20.8505L43.0552 12.7134H46.3681ZM33.1189 5.085H36.4318V7.62841H33.1189V5.085ZM16.5591 5.085H19.872V7.62841H16.5591V5.085ZM6.62275 25.4268H3.31223V22.8852H6.62275V25.4268ZM9.93566 15.2568H6.62275V12.7134H9.93566V15.2568ZM49.6786 25.4268H46.3681V22.8852H49.681L49.6786 25.4268Z" fill="#7F8F98"/>
<path d="M29.806 25.4286C29.806 25.9317 29.6116 26.4235 29.2475 26.8418C28.8834 27.2601 28.3658 27.5861 27.7603 27.7786C27.1548 27.971 26.4886 28.0213 25.8459 27.923C25.2032 27.8247 24.6129 27.5823 24.1497 27.2264C23.6864 26.8705 23.3711 26.4172 23.2435 25.9237C23.116 25.4302 23.1819 24.9187 23.433 24.454C23.6842 23.9893 24.1092 23.5922 24.6543 23.3129C25.1994 23.0337 25.8401 22.8848 26.4955 22.8852C27.3737 22.8857 28.2157 23.1539 28.8365 23.6308C29.4573 24.1077 29.806 24.7544 29.806 25.4286V25.4286Z" fill="#7F8F98"/>
</svg>
