<svg width="102" height="77" viewBox="0 0 102 77" fill="none" xmlns="http://www.w3.org/2000/svg">
<path d="M101.985 66.4565C101.979 65.3712 101.648 64.3001 101.016 63.3188C100.384 62.3374 99.4666 61.4697 98.328 60.7769C89.7964 55.7167 80.5981 51.2936 70.8696 47.5731L63.5154 77H102L101.985 66.4565ZM31.2987 33.1871C31.7634 35.1881 32.7135 37.1117 34.1037 38.8667V43.9439L49.3578 52.1116L43.6917 57.4619L47.5473 62.0078L44.4873 76.9925H57.528L54.5394 62.0265L58.395 57.4806L52.632 52.119L67.932 43.9626V38.8779C69.3222 37.1229 70.2723 35.1993 70.737 33.1983C71.8386 33.131 73.287 31.9935 74.8578 27.9378C76.8978 22.5762 74.8578 21.6333 73.0014 21.6895C77.6475 5.97517 65.6472 5.93028 65.6472 5.93028C64.699 3.97426 62.8483 2.32307 60.4155 1.2626C57.9827 0.202141 55.1211 -0.200825 52.326 0.123473C46.2735 0.587168 40.1689 0.545743 34.1292 0C34.121 0.622076 34.2995 1.23786 34.652 1.80365C35.0046 2.36944 35.5226 2.87136 36.1692 3.27381C25.398 8.07789 27.8766 18.6738 28.8354 21.7231C27.0096 21.7231 25.1022 22.7558 27.1167 27.9714C28.6977 31.9823 30.141 33.1197 31.2987 33.1871ZM31.1304 47.5731C21.4 51.2754 12.1967 55.6797 3.6567 60.7208C2.51871 61.4132 1.60153 62.2803 0.969738 63.261C0.337951 64.2416 0.00693309 65.3119 0 66.3966V76.9963H38.4846L31.1304 47.5731Z" fill="#7F8F98"/>
</svg>
