<svg width="76" height="72" viewBox="0 0 76 72" fill="none" xmlns="http://www.w3.org/2000/svg">
<path d="M64.125 20.25V58.5C64.125 59.0967 63.8748 59.669 63.4294 60.091C62.984 60.5129 62.3799 60.75 61.75 60.75H14.25C13.6201 60.75 13.016 60.5129 12.5706 60.091C12.1252 59.669 11.875 59.0967 11.875 58.5V20.25H64.125Z" fill="#7F8F98"/>
<path d="M61.75 60.75H14.25C13.6201 60.75 13.016 60.5129 12.5706 60.091C12.1252 59.669 11.875 59.0967 11.875 58.5V20.25L16.625 11.25H59.375L64.125 20.25V58.5C64.125 59.0967 63.8748 59.669 63.4294 60.091C62.984 60.5129 62.3799 60.75 61.75 60.75Z" stroke="#7F8F98" stroke-width="2" stroke-linecap="round" stroke-linejoin="round"/>
<path d="M27.9237 42.2041L37.9999 51.75L48.0762 42.2041" stroke="white" stroke-width="1.5" stroke-linecap="round" stroke-linejoin="round"/>
<path d="M38 29.25V51.75" stroke="white" stroke-width="1.5" stroke-linecap="round" stroke-linejoin="round"/>
<path d="M11.875 20.25H64.125" stroke="#7F8F98" stroke-width="2" stroke-linecap="round" stroke-linejoin="round"/>
</svg>
