<svg width="125" height="106" viewBox="0 0 125 106" fill="none" xmlns="http://www.w3.org/2000/svg">
<rect x="0.811035" width="124" height="106" rx="8" fill="#A4D2FF" fill-opacity="0.4"/>
<path d="M22.868 90.14H19.22L18.548 92H17.396L20.42 83.684H21.68L24.692 92H23.54L22.868 90.14ZM22.556 89.252L21.044 85.028L19.532 89.252H22.556ZM27.1019 86.636C27.3179 86.26 27.6379 85.948 28.0619 85.7C28.4939 85.444 28.9939 85.316 29.5619 85.316C30.1459 85.316 30.6739 85.456 31.1459 85.736C31.6259 86.016 32.0019 86.412 32.2739 86.924C32.5459 87.428 32.6819 88.016 32.6819 88.688C32.6819 89.352 32.5459 89.944 32.2739 90.464C32.0019 90.984 31.6259 91.388 31.1459 91.676C30.6739 91.964 30.1459 92.108 29.5619 92.108C29.0019 92.108 28.5059 91.984 28.0739 91.736C27.6499 91.48 27.3259 91.164 27.1019 90.788V95.12H26.0099V85.424H27.1019V86.636ZM31.5659 88.688C31.5659 88.192 31.4659 87.76 31.2659 87.392C31.0659 87.024 30.7939 86.744 30.4499 86.552C30.1139 86.36 29.7419 86.264 29.3339 86.264C28.9339 86.264 28.5619 86.364 28.2179 86.564C27.8819 86.756 27.6099 87.04 27.4019 87.416C27.2019 87.784 27.1019 88.212 27.1019 88.7C27.1019 89.196 27.2019 89.632 27.4019 90.008C27.6099 90.376 27.8819 90.66 28.2179 90.86C28.5619 91.052 28.9339 91.148 29.3339 91.148C29.7419 91.148 30.1139 91.052 30.4499 90.86C30.7939 90.66 31.0659 90.376 31.2659 90.008C31.4659 89.632 31.5659 89.192 31.5659 88.688ZM35.2113 86.636C35.4273 86.26 35.7473 85.948 36.1713 85.7C36.6033 85.444 37.1033 85.316 37.6713 85.316C38.2553 85.316 38.7833 85.456 39.2553 85.736C39.7353 86.016 40.1113 86.412 40.3833 86.924C40.6553 87.428 40.7913 88.016 40.7913 88.688C40.7913 89.352 40.6553 89.944 40.3833 90.464C40.1113 90.984 39.7353 91.388 39.2553 91.676C38.7833 91.964 38.2553 92.108 37.6713 92.108C37.1113 92.108 36.6153 91.984 36.1833 91.736C35.7593 91.48 35.4353 91.164 35.2113 90.788V95.12H34.1193V85.424H35.2113V86.636ZM39.6753 88.688C39.6753 88.192 39.5753 87.76 39.3753 87.392C39.1753 87.024 38.9033 86.744 38.5593 86.552C38.2233 86.36 37.8513 86.264 37.4433 86.264C37.0433 86.264 36.6713 86.364 36.3273 86.564C35.9913 86.756 35.7193 87.04 35.5113 87.416C35.3113 87.784 35.2113 88.212 35.2113 88.7C35.2113 89.196 35.3113 89.632 35.5113 90.008C35.7193 90.376 35.9913 90.66 36.3273 90.86C36.6713 91.052 37.0433 91.148 37.4433 91.148C37.8513 91.148 38.2233 91.052 38.5593 90.86C38.9033 90.66 39.1753 90.376 39.3753 90.008C39.5753 89.632 39.6753 89.192 39.6753 88.688ZM45.0967 92.108C44.4807 92.108 43.9207 91.968 43.4167 91.688C42.9207 91.408 42.5287 91.012 42.2407 90.5C41.9607 89.98 41.8207 89.38 41.8207 88.7C41.8207 88.028 41.9647 87.436 42.2527 86.924C42.5487 86.404 42.9487 86.008 43.4527 85.736C43.9567 85.456 44.5207 85.316 45.1447 85.316C45.7687 85.316 46.3327 85.456 46.8367 85.736C47.3407 86.008 47.7367 86.4 48.0247 86.912C48.3207 87.424 48.4687 88.02 48.4687 88.7C48.4687 89.38 48.3167 89.98 48.0127 90.5C47.7167 91.012 47.3127 91.408 46.8007 91.688C46.2887 91.968 45.7207 92.108 45.0967 92.108ZM45.0967 91.148C45.4887 91.148 45.8567 91.056 46.2007 90.872C46.5447 90.688 46.8207 90.412 47.0287 90.044C47.2447 89.676 47.3527 89.228 47.3527 88.7C47.3527 88.172 47.2487 87.724 47.0407 87.356C46.8327 86.988 46.5607 86.716 46.2247 86.54C45.8887 86.356 45.5247 86.264 45.1327 86.264C44.7327 86.264 44.3647 86.356 44.0287 86.54C43.7007 86.716 43.4367 86.988 43.2367 87.356C43.0367 87.724 42.9367 88.172 42.9367 88.7C42.9367 89.236 43.0327 89.688 43.2247 90.056C43.4247 90.424 43.6887 90.7 44.0167 90.884C44.3447 91.06 44.7047 91.148 45.0967 91.148ZM50.4685 84.356C50.2605 84.356 50.0845 84.284 49.9405 84.14C49.7965 83.996 49.7245 83.82 49.7245 83.612C49.7245 83.404 49.7965 83.228 49.9405 83.084C50.0845 82.94 50.2605 82.868 50.4685 82.868C50.6685 82.868 50.8365 82.94 50.9725 83.084C51.1165 83.228 51.1885 83.404 51.1885 83.612C51.1885 83.82 51.1165 83.996 50.9725 84.14C50.8365 84.284 50.6685 84.356 50.4685 84.356ZM50.9965 85.424V92H49.9045V85.424H50.9965ZM56.0616 85.304C56.8616 85.304 57.5096 85.548 58.0056 86.036C58.5016 86.516 58.7496 87.212 58.7496 88.124V92H57.6696V88.28C57.6696 87.624 57.5056 87.124 57.1776 86.78C56.8496 86.428 56.4016 86.252 55.8336 86.252C55.2576 86.252 54.7976 86.432 54.4536 86.792C54.1176 87.152 53.9496 87.676 53.9496 88.364V92H52.8576V85.424H53.9496V86.36C54.1656 86.024 54.4576 85.764 54.8256 85.58C55.2016 85.396 55.6136 85.304 56.0616 85.304ZM61.8654 86.324V90.2C61.8654 90.52 61.9334 90.748 62.0694 90.884C62.2054 91.012 62.4414 91.076 62.7774 91.076H63.5814V92H62.5974C61.9894 92 61.5334 91.86 61.2294 91.58C60.9254 91.3 60.7734 90.84 60.7734 90.2V86.324H59.9214V85.424H60.7734V83.768H61.8654V85.424H63.5814V86.324H61.8654ZM72.8125 85.304C73.3245 85.304 73.7805 85.412 74.1805 85.628C74.5805 85.836 74.8965 86.152 75.1285 86.576C75.3605 87 75.4765 87.516 75.4765 88.124V92H74.3965V88.28C74.3965 87.624 74.2325 87.124 73.9045 86.78C73.5845 86.428 73.1485 86.252 72.5965 86.252C72.0285 86.252 71.5765 86.436 71.2405 86.804C70.9045 87.164 70.7365 87.688 70.7365 88.376V92H69.6565V88.28C69.6565 87.624 69.4925 87.124 69.1645 86.78C68.8445 86.428 68.4085 86.252 67.8565 86.252C67.2885 86.252 66.8365 86.436 66.5005 86.804C66.1645 87.164 65.9965 87.688 65.9965 88.376V92H64.9045V85.424H65.9965V86.372C66.2125 86.028 66.5005 85.764 66.8605 85.58C67.2285 85.396 67.6325 85.304 68.0725 85.304C68.6245 85.304 69.1125 85.428 69.5365 85.676C69.9605 85.924 70.2765 86.288 70.4845 86.768C70.6685 86.304 70.9725 85.944 71.3965 85.688C71.8205 85.432 72.2925 85.304 72.8125 85.304ZM83.2678 88.46C83.2678 88.668 83.2558 88.888 83.2318 89.12H77.9758C78.0158 89.768 78.2358 90.276 78.6358 90.644C79.0438 91.004 79.5358 91.184 80.1118 91.184C80.5838 91.184 80.9758 91.076 81.2878 90.86C81.6078 90.636 81.8318 90.34 81.9598 89.972H83.1358C82.9598 90.604 82.6078 91.12 82.0798 91.52C81.5518 91.912 80.8958 92.108 80.1118 92.108C79.4878 92.108 78.9278 91.968 78.4318 91.688C77.9438 91.408 77.5598 91.012 77.2798 90.5C76.9998 89.98 76.8598 89.38 76.8598 88.7C76.8598 88.02 76.9958 87.424 77.2678 86.912C77.5398 86.4 77.9198 86.008 78.4078 85.736C78.9038 85.456 79.4718 85.316 80.1118 85.316C80.7358 85.316 81.2878 85.452 81.7678 85.724C82.2478 85.996 82.6158 86.372 82.8718 86.852C83.1358 87.324 83.2678 87.86 83.2678 88.46ZM82.1398 88.232C82.1398 87.816 82.0478 87.46 81.8638 87.164C81.6798 86.86 81.4278 86.632 81.1078 86.48C80.7958 86.32 80.4478 86.24 80.0638 86.24C79.5118 86.24 79.0398 86.416 78.6478 86.768C78.2638 87.12 78.0438 87.608 77.9878 88.232H82.1398ZM87.9132 85.304C88.7132 85.304 89.3612 85.548 89.8572 86.036C90.3532 86.516 90.6012 87.212 90.6012 88.124V92H89.5212V88.28C89.5212 87.624 89.3572 87.124 89.0292 86.78C88.7012 86.428 88.2532 86.252 87.6852 86.252C87.1092 86.252 86.6492 86.432 86.3052 86.792C85.9692 87.152 85.8012 87.676 85.8012 88.364V92H84.7092V85.424H85.8012V86.36C86.0172 86.024 86.3092 85.764 86.6772 85.58C87.0532 85.396 87.4652 85.304 87.9132 85.304ZM93.7169 86.324V90.2C93.7169 90.52 93.7849 90.748 93.9209 90.884C94.0569 91.012 94.2929 91.076 94.6289 91.076H95.4329V92H94.4489C93.8409 92 93.3849 91.86 93.0809 91.58C92.7769 91.3 92.6249 90.84 92.6249 90.2V86.324H91.7729V85.424H92.6249V83.768H93.7169V85.424H95.4329V86.324H93.7169ZM99.084 92.108C98.58 92.108 98.128 92.024 97.728 91.856C97.328 91.68 97.012 91.44 96.78 91.136C96.548 90.824 96.42 90.468 96.396 90.068H97.524C97.556 90.396 97.708 90.664 97.98 90.872C98.26 91.08 98.624 91.184 99.072 91.184C99.488 91.184 99.816 91.092 100.056 90.908C100.296 90.724 100.416 90.492 100.416 90.212C100.416 89.924 100.288 89.712 100.032 89.576C99.776 89.432 99.38 89.292 98.844 89.156C98.356 89.028 97.956 88.9 97.644 88.772C97.34 88.636 97.076 88.44 96.852 88.184C96.636 87.92 96.528 87.576 96.528 87.152C96.528 86.816 96.628 86.508 96.828 86.228C97.028 85.948 97.312 85.728 97.68 85.568C98.048 85.4 98.468 85.316 98.94 85.316C99.668 85.316 100.256 85.5 100.704 85.868C101.152 86.236 101.392 86.74 101.424 87.38H100.332C100.308 87.036 100.168 86.76 99.912 86.552C99.664 86.344 99.328 86.24 98.904 86.24C98.512 86.24 98.2 86.324 97.968 86.492C97.736 86.66 97.62 86.88 97.62 87.152C97.62 87.368 97.688 87.548 97.824 87.692C97.968 87.828 98.144 87.94 98.352 88.028C98.568 88.108 98.864 88.2 99.24 88.304C99.712 88.432 100.096 88.56 100.392 88.688C100.688 88.808 100.94 88.992 101.148 89.24C101.364 89.488 101.476 89.812 101.484 90.212C101.484 90.572 101.384 90.896 101.184 91.184C100.984 91.472 100.7 91.7 100.332 91.868C99.972 92.028 99.556 92.108 99.084 92.108Z" fill="#374858"/>
<path d="M62.4718 47.9925H70.4588C70.854 47.9925 71.233 47.835 71.5124 47.5546C71.7918 47.2742 71.9488 46.8939 71.9488 46.4973V25.4951C71.9488 25.2987 71.9103 25.1042 71.8353 24.9227C71.7603 24.7412 71.6505 24.5763 71.512 24.4375C71.3735 24.2986 71.209 24.1885 71.0281 24.1135C70.8472 24.0384 70.6533 23.9998 70.4575 24H59.8161V24.4946C59.8219 24.547 59.8248 24.5997 59.8249 24.6524V28.7472C59.8245 29.3053 59.6034 29.8405 59.2101 30.2352C58.8167 30.6299 58.2833 30.8518 57.727 30.8521H53.6474C53.605 30.8521 53.5601 30.8521 53.5227 30.8521H52.9998V46.5049C52.9998 46.9014 53.1567 47.2817 53.4362 47.5621C53.7156 47.8425 54.0946 48 54.4898 48H62.4768L62.4718 47.9925ZM62.7726 42.9122H57.5673C57.3806 42.9122 57.2016 42.8378 57.0696 42.7054C56.9376 42.5729 56.8635 42.3933 56.8635 42.206C56.8635 42.0187 56.9376 41.839 57.0696 41.7066C57.2016 41.5741 57.3806 41.4997 57.5673 41.4997H62.7763C62.963 41.4997 63.142 41.5741 63.274 41.7066C63.406 41.839 63.4801 42.0187 63.4801 42.206C63.4801 42.3933 63.406 42.5729 63.274 42.7054C63.142 42.8378 62.963 42.9122 62.7763 42.9122H62.7726ZM67.9816 39.3071H57.5673C57.3806 39.3071 57.2016 39.2327 57.0696 39.1002C56.9376 38.9678 56.8635 38.7882 56.8635 38.6009C56.8635 38.4135 56.9376 38.2339 57.0696 38.1015C57.2016 37.969 57.3806 37.8946 57.5673 37.8946H67.9828C68.1695 37.8946 68.3485 37.969 68.4805 38.1015C68.6125 38.2339 68.6867 38.4135 68.6867 38.6009C68.6867 38.7882 68.6125 38.9678 68.4805 39.1002C68.3485 39.2327 68.1695 39.3071 67.9828 39.3071H67.9816ZM57.5673 34.0666H67.9828C68.1695 34.0666 68.3485 34.141 68.4805 34.2734C68.6125 34.4059 68.6867 34.5855 68.6867 34.7728C68.6867 34.9601 68.6125 35.1398 68.4805 35.2722C68.3485 35.4047 68.1695 35.4791 67.9828 35.4791H57.5673C57.3806 35.4791 57.2016 35.4047 57.0696 35.2722C56.9376 35.1398 56.8635 34.9601 56.8635 34.7728C56.8635 34.5855 56.9376 34.4059 57.0696 34.2734C57.2016 34.141 57.3806 34.0666 57.5673 34.0666Z" fill="#374858"/>
<path d="M53.6471 30.0043H57.738C58.0659 30.002 58.3798 29.8703 58.6117 29.6376C58.8436 29.4049 58.9749 29.09 58.9772 28.7609V24.6486C58.9772 24.5658 58.9608 24.4839 58.9291 24.4075C58.8973 24.3312 58.8508 24.2619 58.7922 24.2036C58.7336 24.1454 58.6641 24.0994 58.5877 24.0683C58.5112 24.0372 58.4294 24.0217 58.347 24.0225C58.265 24.0224 58.1839 24.0389 58.1084 24.0709C58.0329 24.103 57.9647 24.15 57.9077 24.2091L53.2029 28.9299C53.1135 29.0174 53.0522 29.1297 53.0271 29.2524C53.002 29.3751 53.0142 29.5025 53.0621 29.6182C53.1099 29.7339 53.1912 29.8326 53.2955 29.9014C53.3998 29.9702 53.5223 30.0061 53.6471 30.0043Z" fill="#374858"/>
</svg>
