<svg width="124" height="106" viewBox="0 0 124 106" fill="none" xmlns="http://www.w3.org/2000/svg">
<rect width="124" height="106" rx="8" fill="#2279CF" fill-opacity="0.4"/>
<path d="M42.1115 83.636C43.0235 83.636 43.8115 83.808 44.4755 84.152C45.1475 84.488 45.6595 84.972 46.0115 85.604C46.3715 86.236 46.5515 86.98 46.5515 87.836C46.5515 88.692 46.3715 89.436 46.0115 90.068C45.6595 90.692 45.1475 91.172 44.4755 91.508C43.8115 91.836 43.0235 92 42.1115 92H39.5075V83.636H42.1115ZM42.1115 91.1C43.1915 91.1 44.0155 90.816 44.5835 90.248C45.1515 89.672 45.4355 88.868 45.4355 87.836C45.4355 86.796 45.1475 85.984 44.5715 85.4C44.0035 84.816 43.1835 84.524 42.1115 84.524H40.5995V91.1H42.1115ZM50.8599 92.108C50.2439 92.108 49.6839 91.968 49.1799 91.688C48.6839 91.408 48.2919 91.012 48.0039 90.5C47.7239 89.98 47.5839 89.38 47.5839 88.7C47.5839 88.028 47.7279 87.436 48.0159 86.924C48.3119 86.404 48.7119 86.008 49.2159 85.736C49.7199 85.456 50.2839 85.316 50.9079 85.316C51.5319 85.316 52.0959 85.456 52.5999 85.736C53.1039 86.008 53.4999 86.4 53.7879 86.912C54.0839 87.424 54.2319 88.02 54.2319 88.7C54.2319 89.38 54.0799 89.98 53.7759 90.5C53.4799 91.012 53.0759 91.408 52.5639 91.688C52.0519 91.968 51.4839 92.108 50.8599 92.108ZM50.8599 91.148C51.2519 91.148 51.6199 91.056 51.9639 90.872C52.3079 90.688 52.5839 90.412 52.7919 90.044C53.0079 89.676 53.1159 89.228 53.1159 88.7C53.1159 88.172 53.0119 87.724 52.8039 87.356C52.5959 86.988 52.3239 86.716 51.9879 86.54C51.6519 86.356 51.2879 86.264 50.8959 86.264C50.4959 86.264 50.1279 86.356 49.7919 86.54C49.4639 86.716 49.1999 86.988 48.9999 87.356C48.7999 87.724 48.6999 88.172 48.6999 88.7C48.6999 89.236 48.7959 89.688 48.9879 90.056C49.1879 90.424 49.4519 90.7 49.7799 90.884C50.1079 91.06 50.4679 91.148 50.8599 91.148ZM55.2597 88.7C55.2597 88.02 55.3957 87.428 55.6677 86.924C55.9397 86.412 56.3157 86.016 56.7957 85.736C57.2837 85.456 57.8397 85.316 58.4637 85.316C59.2717 85.316 59.9357 85.512 60.4557 85.904C60.9837 86.296 61.3317 86.84 61.4997 87.536H60.3237C60.2117 87.136 59.9917 86.82 59.6637 86.588C59.3437 86.356 58.9437 86.24 58.4637 86.24C57.8397 86.24 57.3357 86.456 56.9517 86.888C56.5677 87.312 56.3757 87.916 56.3757 88.7C56.3757 89.492 56.5677 90.104 56.9517 90.536C57.3357 90.968 57.8397 91.184 58.4637 91.184C58.9437 91.184 59.3437 91.072 59.6637 90.848C59.9837 90.624 60.2037 90.304 60.3237 89.888H61.4997C61.3237 90.56 60.9717 91.1 60.4437 91.508C59.9157 91.908 59.2557 92.108 58.4637 92.108C57.8397 92.108 57.2837 91.968 56.7957 91.688C56.3157 91.408 55.9397 91.012 55.6677 90.5C55.3957 89.988 55.2597 89.388 55.2597 88.7ZM64.2887 86.324V90.2C64.2887 90.52 64.3567 90.748 64.4927 90.884C64.6287 91.012 64.8647 91.076 65.2007 91.076H66.0047V92H65.0207C64.4127 92 63.9567 91.86 63.6527 91.58C63.3487 91.3 63.1967 90.84 63.1967 90.2V86.324H62.3447V85.424H63.1967V83.768H64.2887V85.424H66.0047V86.324H64.2887ZM70.1958 92.108C69.5798 92.108 69.0198 91.968 68.5158 91.688C68.0198 91.408 67.6278 91.012 67.3398 90.5C67.0598 89.98 66.9198 89.38 66.9198 88.7C66.9198 88.028 67.0638 87.436 67.3518 86.924C67.6478 86.404 68.0478 86.008 68.5518 85.736C69.0558 85.456 69.6198 85.316 70.2438 85.316C70.8678 85.316 71.4318 85.456 71.9358 85.736C72.4398 86.008 72.8358 86.4 73.1238 86.912C73.4198 87.424 73.5678 88.02 73.5678 88.7C73.5678 89.38 73.4158 89.98 73.1118 90.5C72.8158 91.012 72.4118 91.408 71.8998 91.688C71.3878 91.968 70.8198 92.108 70.1958 92.108ZM70.1958 91.148C70.5878 91.148 70.9558 91.056 71.2998 90.872C71.6438 90.688 71.9198 90.412 72.1278 90.044C72.3438 89.676 72.4518 89.228 72.4518 88.7C72.4518 88.172 72.3478 87.724 72.1398 87.356C71.9318 86.988 71.6598 86.716 71.3238 86.54C70.9878 86.356 70.6238 86.264 70.2318 86.264C69.8318 86.264 69.4638 86.356 69.1278 86.54C68.7998 86.716 68.5358 86.988 68.3358 87.356C68.1358 87.724 68.0358 88.172 68.0358 88.7C68.0358 89.236 68.1318 89.688 68.3238 90.056C68.5238 90.424 68.7878 90.7 69.1158 90.884C69.4438 91.06 69.8038 91.148 70.1958 91.148ZM76.0956 86.492C76.2876 86.116 76.5596 85.824 76.9116 85.616C77.2716 85.408 77.7076 85.304 78.2196 85.304V86.432H77.9316C76.7076 86.432 76.0956 87.096 76.0956 88.424V92H75.0036V85.424H76.0956V86.492ZM81.8082 92.108C81.3042 92.108 80.8522 92.024 80.4522 91.856C80.0522 91.68 79.7362 91.44 79.5042 91.136C79.2722 90.824 79.1442 90.468 79.1202 90.068H80.2482C80.2802 90.396 80.4322 90.664 80.7042 90.872C80.9842 91.08 81.3482 91.184 81.7962 91.184C82.2122 91.184 82.5402 91.092 82.7802 90.908C83.0202 90.724 83.1402 90.492 83.1402 90.212C83.1402 89.924 83.0122 89.712 82.7562 89.576C82.5002 89.432 82.1042 89.292 81.5682 89.156C81.0802 89.028 80.6802 88.9 80.3682 88.772C80.0642 88.636 79.8002 88.44 79.5762 88.184C79.3602 87.92 79.2522 87.576 79.2522 87.152C79.2522 86.816 79.3522 86.508 79.5522 86.228C79.7522 85.948 80.0362 85.728 80.4042 85.568C80.7722 85.4 81.1922 85.316 81.6642 85.316C82.3922 85.316 82.9802 85.5 83.4282 85.868C83.8762 86.236 84.1162 86.74 84.1482 87.38H83.0562C83.0322 87.036 82.8922 86.76 82.6362 86.552C82.3882 86.344 82.0522 86.24 81.6282 86.24C81.2362 86.24 80.9242 86.324 80.6922 86.492C80.4602 86.66 80.3442 86.88 80.3442 87.152C80.3442 87.368 80.4122 87.548 80.5482 87.692C80.6922 87.828 80.8682 87.94 81.0762 88.028C81.2922 88.108 81.5882 88.2 81.9642 88.304C82.4362 88.432 82.8202 88.56 83.1162 88.688C83.4122 88.808 83.6642 88.992 83.8722 89.24C84.0882 89.488 84.2002 89.812 84.2082 90.212C84.2082 90.572 84.1082 90.896 83.9082 91.184C83.7082 91.472 83.4242 91.7 83.0562 91.868C82.6962 92.028 82.2802 92.108 81.8082 92.108Z" fill="#194977"/>
<path d="M74.6875 40.4001L72.4938 32.1876C72.3719 31.8501 72.1281 31.6251 71.8844 31.4001C66.0344 28.8126 59.2094 28.8126 53.2375 31.4001C52.8719 31.5126 52.6281 31.7376 52.5063 32.0751L50.3125 40.4001C50.3125 40.6251 50.3125 40.9626 50.5562 41.1876C50.6781 41.4126 51.0438 41.6376 51.2875 41.6376C55.0656 42.4251 58.7219 42.7626 62.5 42.7626C66.2781 42.7626 70.0563 42.4251 73.7125 41.6376C74.0781 41.5251 74.3219 41.4126 74.4437 41.1876C74.6875 40.9626 74.6875 40.6251 74.6875 40.4001ZM64.9375 37.2501H63.7188V38.3751C63.7188 39.0501 63.2313 39.5001 62.5 39.5001C61.7687 39.5001 61.2812 39.0501 61.2812 38.3751V37.2501H60.0625C59.3312 37.2501 58.8438 36.8001 58.8438 36.1251C58.8438 35.4501 59.3312 35.0001 60.0625 35.0001H61.2812V33.8751C61.2812 33.2001 61.7687 32.7501 62.5 32.7501C63.2313 32.7501 63.7188 33.2001 63.7188 33.8751V35.0001H64.9375C65.6688 35.0001 66.1562 35.4501 66.1562 36.1251C66.1562 36.8001 65.6688 37.2501 64.9375 37.2501Z" fill="#194977"/>
<path d="M75.0531 43.6626C74.8094 43.7751 74.5656 43.8876 74.3219 43.8876C70.4219 44.6751 66.4 45.1251 62.5 45.1251C58.6 45.1251 54.5781 44.6751 50.6781 43.8876C50.4344 43.8876 50.1906 43.7751 49.9469 43.6626C48.9719 44.6751 48.7281 46.4751 49.4594 48.3876C49.9469 49.8501 50.9219 51.0876 52.1406 51.6501C52.3844 51.7626 52.75 51.8751 52.9937 51.8751C54.4562 55.9251 58.1125 58.6251 62.5 58.6251C66.8875 58.6251 70.5437 55.9251 72.0062 51.8751C72.3719 51.8751 72.6156 51.7626 72.9812 51.6501C74.0781 51.2001 75.175 49.9626 75.6625 48.3876C76.15 46.4751 75.9062 44.6751 75.0531 43.6626Z" fill="#194977"/>
</svg>
