<svg width="125" height="106" viewBox="0 0 125 106" fill="none" xmlns="http://www.w3.org/2000/svg">
<rect x="0.0541992" width="124" height="106" rx="8" fill="#CCA4FF" fill-opacity="0.42"/>
<path d="M34.016 92.631H36.944V93.519H32.924V85.155H34.016V92.631ZM40.9717 93.627C40.3557 93.627 39.7957 93.487 39.2917 93.207C38.7957 92.927 38.4037 92.531 38.1157 92.019C37.8357 91.499 37.6957 90.899 37.6957 90.219C37.6957 89.547 37.8397 88.955 38.1277 88.443C38.4237 87.923 38.8237 87.527 39.3277 87.255C39.8317 86.975 40.3957 86.835 41.0197 86.835C41.6437 86.835 42.2077 86.975 42.7117 87.255C43.2157 87.527 43.6117 87.919 43.8997 88.431C44.1957 88.943 44.3437 89.539 44.3437 90.219C44.3437 90.899 44.1917 91.499 43.8877 92.019C43.5917 92.531 43.1877 92.927 42.6757 93.207C42.1637 93.487 41.5957 93.627 40.9717 93.627ZM40.9717 92.667C41.3637 92.667 41.7317 92.575 42.0757 92.391C42.4197 92.207 42.6957 91.931 42.9037 91.563C43.1197 91.195 43.2277 90.747 43.2277 90.219C43.2277 89.691 43.1237 89.243 42.9157 88.875C42.7077 88.507 42.4357 88.235 42.0997 88.059C41.7637 87.875 41.3997 87.783 41.0077 87.783C40.6077 87.783 40.2397 87.875 39.9037 88.059C39.5757 88.235 39.3117 88.507 39.1117 88.875C38.9117 89.243 38.8117 89.691 38.8117 90.219C38.8117 90.755 38.9077 91.207 39.0997 91.575C39.2997 91.943 39.5637 92.219 39.8917 92.403C40.2197 92.579 40.5797 92.667 40.9717 92.667ZM45.3715 90.219C45.3715 89.539 45.5075 88.947 45.7795 88.443C46.0515 87.931 46.4275 87.535 46.9075 87.255C47.3955 86.975 47.9515 86.835 48.5755 86.835C49.3835 86.835 50.0475 87.031 50.5675 87.423C51.0955 87.815 51.4435 88.359 51.6115 89.055H50.4355C50.3235 88.655 50.1035 88.339 49.7755 88.107C49.4555 87.875 49.0555 87.759 48.5755 87.759C47.9515 87.759 47.4475 87.975 47.0635 88.407C46.6795 88.831 46.4875 89.435 46.4875 90.219C46.4875 91.011 46.6795 91.623 47.0635 92.055C47.4475 92.487 47.9515 92.703 48.5755 92.703C49.0555 92.703 49.4555 92.591 49.7755 92.367C50.0955 92.143 50.3155 91.823 50.4355 91.407H51.6115C51.4355 92.079 51.0835 92.619 50.5555 93.027C50.0275 93.427 49.3675 93.627 48.5755 93.627C47.9515 93.627 47.3955 93.487 46.9075 93.207C46.4275 92.927 46.0515 92.531 45.7795 92.019C45.5075 91.507 45.3715 90.907 45.3715 90.219ZM52.6605 90.207C52.6605 89.535 52.7965 88.947 53.0685 88.443C53.3405 87.931 53.7125 87.535 54.1845 87.255C54.6645 86.975 55.1965 86.835 55.7805 86.835C56.3565 86.835 56.8565 86.959 57.2805 87.207C57.7045 87.455 58.0205 87.767 58.2285 88.143V86.943H59.3325V93.519H58.2285V92.295C58.0125 92.679 57.6885 92.999 57.2565 93.255C56.8325 93.503 56.3365 93.627 55.7685 93.627C55.1845 93.627 54.6565 93.483 54.1845 93.195C53.7125 92.907 53.3405 92.503 53.0685 91.983C52.7965 91.463 52.6605 90.871 52.6605 90.207ZM58.2285 90.219C58.2285 89.723 58.1285 89.291 57.9285 88.923C57.7285 88.555 57.4565 88.275 57.1125 88.083C56.7765 87.883 56.4045 87.783 55.9965 87.783C55.5885 87.783 55.2165 87.879 54.8805 88.071C54.5445 88.263 54.2765 88.543 54.0765 88.911C53.8765 89.279 53.7765 89.711 53.7765 90.207C53.7765 90.711 53.8765 91.151 54.0765 91.527C54.2765 91.895 54.5445 92.179 54.8805 92.379C55.2165 92.571 55.5885 92.667 55.9965 92.667C56.4045 92.667 56.7765 92.571 57.1125 92.379C57.4565 92.179 57.7285 91.895 57.9285 91.527C58.1285 91.151 58.2285 90.715 58.2285 90.219ZM62.5099 87.843V91.719C62.5099 92.039 62.5779 92.267 62.7139 92.403C62.8499 92.531 63.0859 92.595 63.4219 92.595H64.2259V93.519H63.2419C62.6339 93.519 62.1779 93.379 61.8739 93.099C61.5699 92.819 61.4179 92.359 61.4179 91.719V87.843H60.5659V86.943H61.4179V85.287H62.5099V86.943H64.2259V87.843H62.5099ZM66.113 85.875C65.905 85.875 65.729 85.803 65.585 85.659C65.441 85.515 65.369 85.339 65.369 85.131C65.369 84.923 65.441 84.747 65.585 84.603C65.729 84.459 65.905 84.387 66.113 84.387C66.313 84.387 66.481 84.459 66.617 84.603C66.761 84.747 66.833 84.923 66.833 85.131C66.833 85.339 66.761 85.515 66.617 85.659C66.481 85.803 66.313 85.875 66.113 85.875ZM66.641 86.943V93.519H65.549V86.943H66.641ZM71.3701 93.627C70.7541 93.627 70.1941 93.487 69.6901 93.207C69.1941 92.927 68.8021 92.531 68.5141 92.019C68.2341 91.499 68.0941 90.899 68.0941 90.219C68.0941 89.547 68.2381 88.955 68.5261 88.443C68.8221 87.923 69.2221 87.527 69.7261 87.255C70.2301 86.975 70.7941 86.835 71.4181 86.835C72.0421 86.835 72.6061 86.975 73.1101 87.255C73.6141 87.527 74.0101 87.919 74.2981 88.431C74.5941 88.943 74.7421 89.539 74.7421 90.219C74.7421 90.899 74.5901 91.499 74.2861 92.019C73.9901 92.531 73.5861 92.927 73.0741 93.207C72.5621 93.487 71.9941 93.627 71.3701 93.627ZM71.3701 92.667C71.7621 92.667 72.1301 92.575 72.4741 92.391C72.8181 92.207 73.0941 91.931 73.3021 91.563C73.5181 91.195 73.6261 90.747 73.6261 90.219C73.6261 89.691 73.5221 89.243 73.3141 88.875C73.1061 88.507 72.8341 88.235 72.4981 88.059C72.1621 87.875 71.7981 87.783 71.4061 87.783C71.0061 87.783 70.6381 87.875 70.3021 88.059C69.9741 88.235 69.7101 88.507 69.5101 88.875C69.3101 89.243 69.2101 89.691 69.2101 90.219C69.2101 90.755 69.3061 91.207 69.4981 91.575C69.6981 91.943 69.9621 92.219 70.2901 92.403C70.6181 92.579 70.9781 92.667 71.3701 92.667ZM79.3819 86.823C80.1819 86.823 80.8299 87.067 81.3259 87.555C81.8219 88.035 82.0699 88.731 82.0699 89.643V93.519H80.9899V89.799C80.9899 89.143 80.8259 88.643 80.4979 88.299C80.1699 87.947 79.7219 87.771 79.1539 87.771C78.5779 87.771 78.1179 87.951 77.7739 88.311C77.4379 88.671 77.2699 89.195 77.2699 89.883V93.519H76.1779V86.943H77.2699V87.879C77.4859 87.543 77.7779 87.283 78.1459 87.099C78.5219 86.915 78.9339 86.823 79.3819 86.823ZM86.1817 93.627C85.6777 93.627 85.2257 93.543 84.8257 93.375C84.4257 93.199 84.1097 92.959 83.8777 92.655C83.6457 92.343 83.5177 91.987 83.4937 91.587H84.6217C84.6537 91.915 84.8057 92.183 85.0777 92.391C85.3577 92.599 85.7217 92.703 86.1697 92.703C86.5857 92.703 86.9137 92.611 87.1537 92.427C87.3937 92.243 87.5137 92.011 87.5137 91.731C87.5137 91.443 87.3857 91.231 87.1297 91.095C86.8737 90.951 86.4777 90.811 85.9417 90.675C85.4537 90.547 85.0537 90.419 84.7417 90.291C84.4377 90.155 84.1737 89.959 83.9497 89.703C83.7337 89.439 83.6257 89.095 83.6257 88.671C83.6257 88.335 83.7257 88.027 83.9257 87.747C84.1257 87.467 84.4097 87.247 84.7777 87.087C85.1457 86.919 85.5657 86.835 86.0377 86.835C86.7657 86.835 87.3537 87.019 87.8017 87.387C88.2497 87.755 88.4897 88.259 88.5217 88.899H87.4297C87.4057 88.555 87.2657 88.279 87.0097 88.071C86.7617 87.863 86.4257 87.759 86.0017 87.759C85.6097 87.759 85.2977 87.843 85.0657 88.011C84.8337 88.179 84.7177 88.399 84.7177 88.671C84.7177 88.887 84.7857 89.067 84.9217 89.211C85.0657 89.347 85.2417 89.459 85.4497 89.547C85.6657 89.627 85.9617 89.719 86.3377 89.823C86.8097 89.951 87.1937 90.079 87.4897 90.207C87.7857 90.327 88.0377 90.511 88.2457 90.759C88.4617 91.007 88.5737 91.331 88.5817 91.731C88.5817 92.091 88.4817 92.415 88.2817 92.703C88.0817 92.991 87.7977 93.219 87.4297 93.387C87.0697 93.547 86.6537 93.627 86.1817 93.627Z" fill="#242222"/>
<path d="M70.7709 51.2545C70.8067 51.1376 70.827 51.0122 70.827 50.8819V37.1949C70.827 36.5461 70.3452 36.0202 69.7512 36.0202H63.7637V50.5885C63.7637 50.8223 63.725 51.046 63.6566 51.2545H62.9543C62.9901 51.1376 63.0104 51.0122 63.0104 50.8819V32.0839C63.0104 31.4351 62.5286 30.9092 61.9346 30.9092H52.541C51.947 30.9092 51.4655 31.4351 51.4655 32.0839V50.8819C51.4655 51.0122 51.4858 51.1376 51.5216 51.2545H50.8196C50.7512 51.046 50.7125 50.8223 50.7125 50.5885V36.0202H44.8685C44.2745 36.0202 43.793 36.5461 43.793 37.1949V50.8819C43.793 51.0122 43.8133 51.1376 43.8488 51.2545H42V53.6829H72.4762V51.2545H70.7709ZM47.0194 46.4563H45.4776V44.7726H47.0194V46.4563ZM47.0194 43.5H45.4776V41.8159H47.0194V43.5ZM47.0194 40.6412H45.4776V38.9572H47.0194V40.6412ZM49.4219 46.4563H47.8801V44.7726H49.4219V46.4563ZM49.4219 43.5H47.8801V41.8159H49.4219V43.5ZM49.4219 40.6412H47.8801V38.9572H49.4219V40.6412ZM59.6314 51.176H55.1047V45.0076H59.6314V51.176ZM57.2379 39.7205C55.1441 39.7205 53.4465 37.8663 53.4465 35.5792C53.4465 33.2917 55.1444 31.4375 57.2379 31.4375C59.3321 31.4375 61.0297 33.2917 61.0297 35.5792C61.0297 37.8666 59.3321 39.7205 57.2379 39.7205ZM67.0262 46.4563H65.4848V44.7726H67.0262V46.4563ZM67.0262 43.5H65.4848V41.8159H67.0262V43.5ZM67.0262 40.6412H65.4848V38.9572H67.0262V40.6412ZM69.4284 46.4563H67.8869V44.7726H69.4284V46.4563ZM69.4284 43.5H67.8869V41.8159H69.4284V43.5ZM69.4284 40.6412H67.8869V38.9572H69.4284V40.6412ZM58.1789 34.5513H59.6311V36.607H58.1789V38.1938H56.2969V36.607H54.8448V34.5513H56.2969V32.9652H58.1789V34.5513Z" fill="#242222"/>
</svg>
