<svg width="22" height="19" viewBox="0 0 22 19" fill="none" xmlns="http://www.w3.org/2000/svg">
<g clip-path="url(#clip0_145_898)">
<path fill-rule="evenodd" clip-rule="evenodd" d="M11 5.34375C9.86081 5.34375 8.9375 6.14116 8.9375 7.125C8.9375 8.10884 9.86081 8.90625 11 8.90625C12.1392 8.90625 13.0625 8.10884 13.0625 7.125C13.0625 6.14116 12.1392 5.34375 11 5.34375ZM11 10.0938C9.10181 10.0938 7.5625 8.76494 7.5625 7.125C7.5625 5.48506 9.10181 4.15625 11 4.15625C12.8982 4.15625 14.4375 5.48506 14.4375 7.125C14.4375 8.76494 12.8982 10.0938 11 10.0938ZM11 0C6.44394 0 2.75 3.19022 2.75 7.125C2.75 10.1044 9.62844 19.0065 11 19C12.3502 19.0065 19.25 10.0641 19.25 7.125C19.25 3.19022 15.5561 0 11 0Z" fill="#7F8F98"/>
</g>
<defs>
<clipPath id="clip0_145_898">
<rect width="22" height="19" fill="white"/>
</clipPath>
</defs>
</svg>
