<svg width="125" height="106" viewBox="0 0 125 106" fill="none" xmlns="http://www.w3.org/2000/svg">
<rect x="0.811035" width="124" height="106" rx="8" fill="#FFF598" fill-opacity="0.47"/>
<g clip-path="url(#clip0_1_2928)">
<path d="M66.9456 33V31H58.9728V33C57.6517 33.0016 56.3851 33.5289 55.451 34.4662C54.5168 35.4036 53.9913 36.6744 53.9897 38V43C53.9913 44.3256 54.5168 45.5964 55.451 46.5338C56.3851 47.4711 57.6517 47.9984 58.9728 48H66.9456C68.2667 47.9984 69.5332 47.4711 70.4674 46.5338C71.4015 45.5964 71.927 44.3256 71.9286 43V38C71.927 36.6744 71.4015 35.4036 70.4674 34.4662C69.5332 33.5289 68.2667 33.0016 66.9456 33ZM65.949 41H63.9558V43C63.9558 43.2652 63.8508 43.5196 63.6639 43.7071C63.477 43.8946 63.2235 44 62.9592 44C62.6949 44 62.4414 43.8946 62.2545 43.7071C62.0676 43.5196 61.9626 43.2652 61.9626 43V41H59.9694C59.705 41 59.4516 40.8946 59.2647 40.7071C59.0778 40.5196 58.9728 40.2652 58.9728 40C58.9728 39.7348 59.0778 39.4804 59.2647 39.2929C59.4516 39.1054 59.705 39 59.9694 39H61.9626V37C61.9626 36.7348 62.0676 36.4804 62.2545 36.2929C62.4414 36.1054 62.6949 36 62.9592 36C63.2235 36 63.477 36.1054 63.6639 36.2929C63.8508 36.4804 63.9558 36.7348 63.9558 37V39H65.949C66.2133 39 66.4668 39.1054 66.6537 39.2929C66.8406 39.4804 66.9456 39.7348 66.9456 40C66.9456 40.2652 66.8406 40.5196 66.6537 40.7071C66.4668 40.8946 66.2133 41 65.949 41ZM66.4473 29H59.4711C58.8103 29 58.1765 28.7366 57.7093 28.2678C57.2421 27.7989 56.9796 27.163 56.9796 26.5C56.9796 25.837 57.2421 25.2011 57.7093 24.7322C58.1765 24.2634 58.8103 24 59.4711 24H66.4473C67.1081 24 67.7418 24.2634 68.209 24.7322C68.6763 25.2011 68.9388 25.837 68.9388 26.5C68.9388 27.163 68.6763 27.7989 68.209 28.2678C67.7418 28.7366 67.1081 29 66.4473 29Z" fill="#4B4403"/>
</g>
<path d="M27.408 85.2153V93.5193H26.316V87.3273L23.556 93.5193H22.788L20.016 87.3153V93.5193H18.924V85.2153H20.1L23.172 92.0793L26.244 85.2153H27.408ZM35.2599 89.9793C35.2599 90.1873 35.2479 90.4073 35.2239 90.6393H29.9679C30.0079 91.2873 30.2279 91.7953 30.6279 92.1633C31.0359 92.5233 31.5279 92.7033 32.1039 92.7033C32.5759 92.7033 32.9679 92.5953 33.2799 92.3793C33.5999 92.1553 33.8239 91.8593 33.9519 91.4913H35.1279C34.9519 92.1233 34.5999 92.6393 34.0719 93.0393C33.5439 93.4313 32.8879 93.6273 32.1039 93.6273C31.4799 93.6273 30.9199 93.4873 30.4239 93.2073C29.9359 92.9273 29.5519 92.5313 29.2719 92.0193C28.9919 91.4993 28.8519 90.8993 28.8519 90.2193C28.8519 89.5393 28.9879 88.9433 29.2599 88.4313C29.5319 87.9193 29.9119 87.5273 30.3999 87.2553C30.8959 86.9753 31.4639 86.8353 32.1039 86.8353C32.7279 86.8353 33.2799 86.9713 33.7599 87.2433C34.2399 87.5153 34.6079 87.8913 34.8639 88.3713C35.1279 88.8433 35.2599 89.3793 35.2599 89.9793ZM34.1319 89.7513C34.1319 89.3353 34.0399 88.9793 33.8559 88.6833C33.6719 88.3793 33.4199 88.1513 33.0999 87.9993C32.7879 87.8393 32.4399 87.7593 32.0559 87.7593C31.5039 87.7593 31.0319 87.9353 30.6399 88.2873C30.2559 88.6393 30.0359 89.1273 29.9799 89.7513H34.1319ZM36.2933 90.2073C36.2933 89.5353 36.4293 88.9473 36.7013 88.4433C36.9733 87.9313 37.3453 87.5353 37.8173 87.2553C38.2973 86.9753 38.8333 86.8353 39.4253 86.8353C39.9373 86.8353 40.4133 86.9553 40.8533 87.1953C41.2933 87.4273 41.6293 87.7353 41.8613 88.1193V84.6393H42.9653V93.5193H41.8613V92.2833C41.6453 92.6753 41.3253 92.9993 40.9013 93.2553C40.4773 93.5033 39.9813 93.6273 39.4133 93.6273C38.8293 93.6273 38.2973 93.4833 37.8173 93.1953C37.3453 92.9073 36.9733 92.5033 36.7013 91.9833C36.4293 91.4633 36.2933 90.8713 36.2933 90.2073ZM41.8613 90.2193C41.8613 89.7233 41.7613 89.2913 41.5613 88.9233C41.3613 88.5553 41.0893 88.2753 40.7453 88.0833C40.4093 87.8833 40.0373 87.7833 39.6293 87.7833C39.2213 87.7833 38.8493 87.8793 38.5133 88.0713C38.1773 88.2633 37.9093 88.5433 37.7093 88.9113C37.5093 89.2793 37.4093 89.7113 37.4093 90.2073C37.4093 90.7113 37.5093 91.1513 37.7093 91.5273C37.9093 91.8953 38.1773 92.1793 38.5133 92.3793C38.8493 92.5713 39.2213 92.6673 39.6293 92.6673C40.0373 92.6673 40.4093 92.5713 40.7453 92.3793C41.0893 92.1793 41.3613 91.8953 41.5613 91.5273C41.7613 91.1513 41.8613 90.7153 41.8613 90.2193ZM45.3747 85.8753C45.1667 85.8753 44.9907 85.8033 44.8467 85.6593C44.7027 85.5153 44.6307 85.3393 44.6307 85.1313C44.6307 84.9233 44.7027 84.7473 44.8467 84.6033C44.9907 84.4593 45.1667 84.3873 45.3747 84.3873C45.5747 84.3873 45.7427 84.4593 45.8787 84.6033C46.0227 84.7473 46.0947 84.9233 46.0947 85.1313C46.0947 85.3393 46.0227 85.5153 45.8787 85.6593C45.7427 85.8033 45.5747 85.8753 45.3747 85.8753ZM45.9027 86.9433V93.5193H44.8107V86.9433H45.9027ZM47.3558 90.2193C47.3558 89.5393 47.4918 88.9473 47.7638 88.4433C48.0358 87.9313 48.4118 87.5353 48.8918 87.2553C49.3798 86.9753 49.9358 86.8353 50.5598 86.8353C51.3678 86.8353 52.0318 87.0313 52.5518 87.4233C53.0798 87.8153 53.4278 88.3593 53.5958 89.0553H52.4198C52.3078 88.6553 52.0878 88.3393 51.7598 88.1073C51.4398 87.8753 51.0398 87.7593 50.5598 87.7593C49.9358 87.7593 49.4318 87.9753 49.0478 88.4073C48.6638 88.8313 48.4718 89.4353 48.4718 90.2193C48.4718 91.0113 48.6638 91.6233 49.0478 92.0553C49.4318 92.4873 49.9358 92.7033 50.5598 92.7033C51.0398 92.7033 51.4398 92.5913 51.7598 92.3673C52.0798 92.1433 52.2998 91.8233 52.4198 91.4073H53.5958C53.4198 92.0793 53.0678 92.6193 52.5398 93.0273C52.0118 93.4273 51.3518 93.6273 50.5598 93.6273C49.9358 93.6273 49.3798 93.4873 48.8918 93.2073C48.4118 92.9273 48.0358 92.5313 47.7638 92.0193C47.4918 91.5073 47.3558 90.9073 47.3558 90.2193ZM55.6169 85.8753C55.4089 85.8753 55.2329 85.8033 55.0889 85.6593C54.9449 85.5153 54.8729 85.3393 54.8729 85.1313C54.8729 84.9233 54.9449 84.7473 55.0889 84.6033C55.2329 84.4593 55.4089 84.3873 55.6169 84.3873C55.8169 84.3873 55.9849 84.4593 56.1209 84.6033C56.2649 84.7473 56.3369 84.9233 56.3369 85.1313C56.3369 85.3393 56.2649 85.5153 56.1209 85.6593C55.9849 85.8033 55.8169 85.8753 55.6169 85.8753ZM56.1449 86.9433V93.5193H55.0529V86.9433H56.1449ZM61.21 86.8233C62.01 86.8233 62.658 87.0673 63.154 87.5553C63.65 88.0353 63.898 88.7313 63.898 89.6433V93.5193H62.818V89.7993C62.818 89.1433 62.654 88.6433 62.326 88.2993C61.998 87.9473 61.55 87.7713 60.982 87.7713C60.406 87.7713 59.946 87.9513 59.602 88.3113C59.266 88.6713 59.098 89.1953 59.098 89.8833V93.5193H58.006V86.9433H59.098V87.8793C59.314 87.5433 59.606 87.2833 59.974 87.0993C60.35 86.9153 60.762 86.8233 61.21 86.8233ZM71.6818 89.9793C71.6818 90.1873 71.6698 90.4073 71.6458 90.6393H66.3898C66.4298 91.2873 66.6498 91.7953 67.0498 92.1633C67.4578 92.5233 67.9498 92.7033 68.5258 92.7033C68.9978 92.7033 69.3898 92.5953 69.7018 92.3793C70.0218 92.1553 70.2458 91.8593 70.3738 91.4913H71.5498C71.3738 92.1233 71.0218 92.6393 70.4938 93.0393C69.9658 93.4313 69.3098 93.6273 68.5258 93.6273C67.9018 93.6273 67.3418 93.4873 66.8458 93.2073C66.3578 92.9273 65.9738 92.5313 65.6938 92.0193C65.4138 91.4993 65.2738 90.8993 65.2738 90.2193C65.2738 89.5393 65.4098 88.9433 65.6818 88.4313C65.9538 87.9193 66.3338 87.5273 66.8218 87.2553C67.3178 86.9753 67.8858 86.8353 68.5258 86.8353C69.1498 86.8353 69.7018 86.9713 70.1818 87.2433C70.6618 87.5153 71.0298 87.8913 71.2858 88.3713C71.5498 88.8433 71.6818 89.3793 71.6818 89.9793ZM70.5538 89.7513C70.5538 89.3353 70.4618 88.9793 70.2778 88.6833C70.0938 88.3793 69.8418 88.1513 69.5218 87.9993C69.2098 87.8393 68.8618 87.7593 68.4778 87.7593C67.9258 87.7593 67.4538 87.9353 67.0618 88.2873C66.6778 88.6393 66.4578 89.1273 66.4018 89.7513H70.5538ZM75.4512 93.6273C74.9472 93.6273 74.4952 93.5433 74.0952 93.3753C73.6952 93.1993 73.3792 92.9593 73.1472 92.6553C72.9152 92.3433 72.7872 91.9873 72.7632 91.5873H73.8912C73.9232 91.9153 74.0752 92.1833 74.3472 92.3913C74.6272 92.5993 74.9912 92.7033 75.4392 92.7033C75.8552 92.7033 76.1832 92.6113 76.4232 92.4273C76.6632 92.2433 76.7832 92.0113 76.7832 91.7313C76.7832 91.4433 76.6552 91.2313 76.3992 91.0953C76.1432 90.9513 75.7472 90.8113 75.2112 90.6753C74.7232 90.5473 74.3232 90.4193 74.0112 90.2913C73.7072 90.1553 73.4432 89.9593 73.2192 89.7033C73.0032 89.4393 72.8952 89.0953 72.8952 88.6713C72.8952 88.3353 72.9952 88.0273 73.1952 87.7473C73.3952 87.4673 73.6792 87.2473 74.0472 87.0873C74.4152 86.9193 74.8352 86.8353 75.3072 86.8353C76.0352 86.8353 76.6232 87.0193 77.0712 87.3873C77.5192 87.7553 77.7592 88.2593 77.7912 88.8993H76.6992C76.6752 88.5553 76.5352 88.2793 76.2792 88.0713C76.0312 87.8633 75.6952 87.7593 75.2712 87.7593C74.8792 87.7593 74.5672 87.8433 74.3352 88.0113C74.1032 88.1793 73.9872 88.3993 73.9872 88.6713C73.9872 88.8873 74.0552 89.0673 74.1912 89.2113C74.3352 89.3473 74.5112 89.4593 74.7192 89.5473C74.9352 89.6273 75.2312 89.7193 75.6072 89.8233C76.0792 89.9513 76.4632 90.0793 76.7592 90.2073C77.0552 90.3273 77.3072 90.5113 77.5152 90.7593C77.7312 91.0073 77.8432 91.3313 77.8512 91.7313C77.8512 92.0913 77.7512 92.4153 77.5512 92.7033C77.3512 92.9913 77.0672 93.2193 76.6992 93.3873C76.3392 93.5473 75.9232 93.6273 75.4512 93.6273ZM85.244 93.6033C84.692 93.6033 84.196 93.5073 83.756 93.3153C83.324 93.1153 82.984 92.8433 82.736 92.4993C82.488 92.1473 82.36 91.7433 82.352 91.2873H83.516C83.556 91.6793 83.716 92.0113 83.996 92.2833C84.284 92.5473 84.7 92.6793 85.244 92.6793C85.764 92.6793 86.172 92.5513 86.468 92.2953C86.772 92.0313 86.924 91.6953 86.924 91.2873C86.924 90.9673 86.836 90.7073 86.66 90.5073C86.484 90.3073 86.264 90.1553 86 90.0513C85.736 89.9473 85.38 89.8353 84.932 89.7153C84.38 89.5713 83.936 89.4273 83.6 89.2833C83.272 89.1393 82.988 88.9153 82.748 88.6113C82.516 88.2993 82.4 87.8833 82.4 87.3633C82.4 86.9073 82.516 86.5033 82.748 86.1513C82.98 85.7993 83.304 85.5273 83.72 85.3353C84.144 85.1433 84.628 85.0473 85.172 85.0473C85.956 85.0473 86.596 85.2433 87.092 85.6353C87.596 86.0273 87.88 86.5473 87.944 87.1953H86.744C86.704 86.8753 86.536 86.5953 86.24 86.3553C85.944 86.1073 85.552 85.9833 85.064 85.9833C84.608 85.9833 84.236 86.1033 83.948 86.3433C83.66 86.5753 83.516 86.9033 83.516 87.3273C83.516 87.6313 83.6 87.8793 83.768 88.0713C83.944 88.2633 84.156 88.4113 84.404 88.5153C84.66 88.6113 85.016 88.7233 85.472 88.8513C86.024 89.0033 86.468 89.1553 86.804 89.3073C87.14 89.4513 87.428 89.6793 87.668 89.9913C87.908 90.2953 88.028 90.7113 88.028 91.2393C88.028 91.6473 87.92 92.0313 87.704 92.3913C87.488 92.7513 87.168 93.0433 86.744 93.2673C86.32 93.4913 85.82 93.6033 85.244 93.6033ZM92.5029 93.6273C91.8869 93.6273 91.3269 93.4873 90.8229 93.2073C90.3269 92.9273 89.9349 92.5313 89.6469 92.0193C89.3669 91.4993 89.2269 90.8993 89.2269 90.2193C89.2269 89.5473 89.3709 88.9553 89.6589 88.4433C89.9549 87.9233 90.3549 87.5273 90.8589 87.2553C91.3629 86.9753 91.9269 86.8353 92.5509 86.8353C93.1749 86.8353 93.7389 86.9753 94.2429 87.2553C94.7469 87.5273 95.1429 87.9193 95.4309 88.4313C95.7269 88.9433 95.8749 89.5393 95.8749 90.2193C95.8749 90.8993 95.7229 91.4993 95.4189 92.0193C95.1229 92.5313 94.7189 92.9273 94.2069 93.2073C93.6949 93.4873 93.1269 93.6273 92.5029 93.6273ZM92.5029 92.6673C92.8949 92.6673 93.2629 92.5753 93.6069 92.3913C93.9509 92.2073 94.2269 91.9313 94.4349 91.5633C94.6509 91.1953 94.7589 90.7473 94.7589 90.2193C94.7589 89.6913 94.6549 89.2433 94.4469 88.8753C94.2389 88.5073 93.9669 88.2353 93.6309 88.0593C93.2949 87.8753 92.9309 87.7833 92.5389 87.7833C92.1389 87.7833 91.7709 87.8753 91.4349 88.0593C91.1069 88.2353 90.8429 88.5073 90.6429 88.8753C90.4429 89.2433 90.3429 89.6913 90.3429 90.2193C90.3429 90.7553 90.4389 91.2073 90.6309 91.5753C90.8309 91.9433 91.0949 92.2193 91.4229 92.4033C91.7509 92.5793 92.1109 92.6673 92.5029 92.6673ZM98.4027 84.6393V93.5193H97.3107V84.6393H98.4027ZM99.8558 90.2073C99.8558 89.5353 99.9918 88.9473 100.264 88.4433C100.536 87.9313 100.908 87.5353 101.38 87.2553C101.86 86.9753 102.396 86.8353 102.988 86.8353C103.5 86.8353 103.976 86.9553 104.416 87.1953C104.856 87.4273 105.192 87.7353 105.424 88.1193V84.6393H106.528V93.5193H105.424V92.2833C105.208 92.6753 104.888 92.9993 104.464 93.2553C104.04 93.5033 103.544 93.6273 102.976 93.6273C102.392 93.6273 101.86 93.4833 101.38 93.1953C100.908 92.9073 100.536 92.5033 100.264 91.9833C99.9918 91.4633 99.8558 90.8713 99.8558 90.2073ZM105.424 90.2193C105.424 89.7233 105.324 89.2913 105.124 88.9233C104.924 88.5553 104.652 88.2753 104.308 88.0833C103.972 87.8833 103.6 87.7833 103.192 87.7833C102.784 87.7833 102.412 87.8793 102.076 88.0713C101.74 88.2633 101.472 88.5433 101.272 88.9113C101.072 89.2793 100.972 89.7113 100.972 90.2073C100.972 90.7113 101.072 91.1513 101.272 91.5273C101.472 91.8953 101.74 92.1793 102.076 92.3793C102.412 92.5713 102.784 92.6673 103.192 92.6673C103.6 92.6673 103.972 92.5713 104.308 92.3793C104.652 92.1793 104.924 91.8953 105.124 91.5273C105.324 91.1513 105.424 90.7153 105.424 90.2193Z" fill="#4B4403"/>
<defs>
<clipPath id="clip0_1_2928">
<rect width="23.9185" height="24" fill="white" transform="translate(51 24)"/>
</clipPath>
</defs>
</svg>
