<svg width="125" height="106" viewBox="0 0 125 106" fill="none" xmlns="http://www.w3.org/2000/svg">
<rect x="0.0541992" width="124" height="106" rx="8" fill="#A4FFBD" fill-opacity="0.4"/>
<path d="M67.7854 37.4993C68.4261 37.4993 69.0524 37.2793 69.5852 36.8672C70.1179 36.4551 70.5331 35.8694 70.7783 35.1841C71.0235 34.4988 71.0877 33.7447 70.9627 33.0172C70.8377 32.2897 70.5291 31.6214 70.0761 31.0969C69.623 30.5724 69.0458 30.2152 68.4174 30.0705C67.7889 29.9258 67.1376 30 66.5456 30.2839C65.9537 30.5677 65.4477 31.0485 65.0918 31.6652C64.7358 32.282 64.5458 33.0071 64.5458 33.7488C64.5445 34.2418 64.6274 34.7301 64.7898 35.1858C64.9521 35.6415 65.1907 36.0556 65.4918 36.4041C65.7929 36.7527 66.1505 37.0289 66.5441 37.2168C66.9377 37.4048 67.3596 37.5008 67.7854 37.4993ZM58.0703 35.9994C58.8389 35.9991 59.5902 35.735 60.2292 35.2405C60.8682 34.7459 61.3662 34.0432 61.6602 33.221C61.9542 32.3989 62.0311 31.4942 61.8811 30.6215C61.7311 29.7488 61.3609 28.9471 60.8174 28.3179C60.2739 27.6887 59.5815 27.2602 58.8276 27.0865C58.0738 26.9129 57.2924 27.0019 56.5822 27.3423C55.8721 27.6826 55.265 28.2592 54.8379 28.9989C54.4107 29.7387 54.1826 30.6085 54.1823 31.4983C54.1801 32.0901 54.2791 32.6766 54.4737 33.2239C54.6683 33.7711 54.9546 34.2684 55.3161 34.6869C55.6776 35.1053 56.1071 35.4368 56.5798 35.6621C57.0525 35.8873 57.5591 36.002 58.0703 35.9994ZM67.7854 40.4991C65.4148 40.4991 60.659 41.8797 60.659 44.6242V47.9986H74.9117V44.6242C74.9141 41.8783 70.1584 40.4991 67.7854 40.4991ZM58.0703 38.9992C55.0513 38.9992 49 40.7488 49 44.2495V48H58.0703V44.6242C58.1059 43.5095 58.4132 42.4292 58.9566 41.5081C59.5001 40.587 60.2575 39.8627 61.1414 39.4187C60.1319 39.1638 59.1033 39.0233 58.0703 38.9992Z" fill="#2D421E"/>
<path d="M45.7113 87.6033C45.7113 88.2993 45.4713 88.8793 44.9913 89.3433C44.5193 89.7993 43.7953 90.0273 42.8193 90.0273H41.2113V93.5193H40.1193V85.1553H42.8193C43.7633 85.1553 44.4793 85.3833 44.9673 85.8393C45.4633 86.2953 45.7113 86.8833 45.7113 87.6033ZM42.8193 89.1273C43.4273 89.1273 43.8753 88.9953 44.1633 88.7313C44.4513 88.4673 44.5953 88.0913 44.5953 87.6033C44.5953 86.5713 44.0033 86.0553 42.8193 86.0553H41.2113V89.1273H42.8193ZM46.6605 90.2073C46.6605 89.5353 46.7965 88.9473 47.0685 88.4433C47.3405 87.9313 47.7125 87.5353 48.1845 87.2553C48.6645 86.9753 49.1965 86.8353 49.7805 86.8353C50.3565 86.8353 50.8565 86.9593 51.2805 87.2073C51.7045 87.4553 52.0205 87.7673 52.2285 88.1433V86.9433H53.3325V93.5193H52.2285V92.2953C52.0125 92.6793 51.6885 92.9993 51.2565 93.2553C50.8325 93.5033 50.3365 93.6273 49.7685 93.6273C49.1845 93.6273 48.6565 93.4833 48.1845 93.1953C47.7125 92.9073 47.3405 92.5033 47.0685 91.9833C46.7965 91.4633 46.6605 90.8713 46.6605 90.2073ZM52.2285 90.2193C52.2285 89.7233 52.1285 89.2913 51.9285 88.9233C51.7285 88.5553 51.4565 88.2753 51.1125 88.0833C50.7765 87.8833 50.4045 87.7833 49.9965 87.7833C49.5885 87.7833 49.2165 87.8793 48.8805 88.0713C48.5445 88.2633 48.2765 88.5433 48.0765 88.9113C47.8765 89.2793 47.7765 89.7113 47.7765 90.2073C47.7765 90.7113 47.8765 91.1513 48.0765 91.5273C48.2765 91.8953 48.5445 92.1793 48.8805 92.3793C49.2165 92.5713 49.5885 92.6673 49.9965 92.6673C50.4045 92.6673 50.7765 92.5713 51.1125 92.3793C51.4565 92.1793 51.7285 91.8953 51.9285 91.5273C52.1285 91.1513 52.2285 90.7153 52.2285 90.2193ZM56.5099 87.8433V91.7193C56.5099 92.0393 56.5779 92.2673 56.7139 92.4033C56.8499 92.5313 57.0859 92.5953 57.4219 92.5953H58.2259V93.5193H57.2419C56.6339 93.5193 56.1779 93.3793 55.8739 93.0993C55.5699 92.8193 55.4179 92.3593 55.4179 91.7193V87.8433H54.5659V86.9433H55.4179V85.2873H56.5099V86.9433H58.2259V87.8433H56.5099ZM60.113 85.8753C59.905 85.8753 59.729 85.8033 59.585 85.6593C59.441 85.5153 59.369 85.3393 59.369 85.1313C59.369 84.9233 59.441 84.7473 59.585 84.6033C59.729 84.4593 59.905 84.3873 60.113 84.3873C60.313 84.3873 60.481 84.4593 60.617 84.6033C60.761 84.7473 60.833 84.9233 60.833 85.1313C60.833 85.3393 60.761 85.5153 60.617 85.6593C60.481 85.8033 60.313 85.8753 60.113 85.8753ZM60.641 86.9433V93.5193H59.549V86.9433H60.641ZM68.5021 89.9793C68.5021 90.1873 68.4901 90.4073 68.4661 90.6393H63.2101C63.2501 91.2873 63.4701 91.7953 63.8701 92.1633C64.2781 92.5233 64.7701 92.7033 65.3461 92.7033C65.8181 92.7033 66.2101 92.5953 66.5221 92.3793C66.8421 92.1553 67.0661 91.8593 67.1941 91.4913H68.3701C68.1941 92.1233 67.8421 92.6393 67.3141 93.0393C66.7861 93.4313 66.1301 93.6273 65.3461 93.6273C64.7221 93.6273 64.1621 93.4873 63.6661 93.2073C63.1781 92.9273 62.7941 92.5313 62.5141 92.0193C62.2341 91.4993 62.0941 90.8993 62.0941 90.2193C62.0941 89.5393 62.2301 88.9433 62.5021 88.4313C62.7741 87.9193 63.1541 87.5273 63.6421 87.2553C64.1381 86.9753 64.7061 86.8353 65.3461 86.8353C65.9701 86.8353 66.5221 86.9713 67.0021 87.2433C67.4821 87.5153 67.8501 87.8913 68.1061 88.3713C68.3701 88.8433 68.5021 89.3793 68.5021 89.9793ZM67.3741 89.7513C67.3741 89.3353 67.2821 88.9793 67.0981 88.6833C66.9141 88.3793 66.6621 88.1513 66.3421 87.9993C66.0301 87.8393 65.6821 87.7593 65.2981 87.7593C64.7461 87.7593 64.2741 87.9353 63.8821 88.2873C63.4981 88.6393 63.2781 89.1273 63.2221 89.7513H67.3741ZM73.1475 86.8233C73.9475 86.8233 74.5955 87.0673 75.0915 87.5553C75.5875 88.0353 75.8355 88.7313 75.8355 89.6433V93.5193H74.7555V89.7993C74.7555 89.1433 74.5915 88.6433 74.2635 88.2993C73.9355 87.9473 73.4875 87.7713 72.9195 87.7713C72.3435 87.7713 71.8835 87.9513 71.5395 88.3113C71.2035 88.6713 71.0355 89.1953 71.0355 89.8833V93.5193H69.9435V86.9433H71.0355V87.8793C71.2515 87.5433 71.5435 87.2833 71.9115 87.0993C72.2875 86.9153 72.6995 86.8233 73.1475 86.8233ZM78.9513 87.8433V91.7193C78.9513 92.0393 79.0193 92.2673 79.1553 92.4033C79.2913 92.5313 79.5273 92.5953 79.8633 92.5953H80.6673V93.5193H79.6833C79.0753 93.5193 78.6193 93.3793 78.3153 93.0993C78.0113 92.8193 77.8593 92.3593 77.8593 91.7193V87.8433H77.0073V86.9433H77.8593V85.2873H78.9513V86.9433H80.6673V87.8433H78.9513ZM84.3184 93.6273C83.8144 93.6273 83.3624 93.5433 82.9624 93.3753C82.5624 93.1993 82.2464 92.9593 82.0144 92.6553C81.7824 92.3433 81.6544 91.9873 81.6304 91.5873H82.7584C82.7904 91.9153 82.9424 92.1833 83.2144 92.3913C83.4944 92.5993 83.8584 92.7033 84.3064 92.7033C84.7224 92.7033 85.0504 92.6113 85.2904 92.4273C85.5304 92.2433 85.6504 92.0113 85.6504 91.7313C85.6504 91.4433 85.5224 91.2313 85.2664 91.0953C85.0104 90.9513 84.6144 90.8113 84.0784 90.6753C83.5904 90.5473 83.1904 90.4193 82.8784 90.2913C82.5744 90.1553 82.3104 89.9593 82.0864 89.7033C81.8704 89.4393 81.7624 89.0953 81.7624 88.6713C81.7624 88.3353 81.8624 88.0273 82.0624 87.7473C82.2624 87.4673 82.5464 87.2473 82.9144 87.0873C83.2824 86.9193 83.7024 86.8353 84.1744 86.8353C84.9024 86.8353 85.4904 87.0193 85.9384 87.3873C86.3864 87.7553 86.6264 88.2593 86.6584 88.8993H85.5664C85.5424 88.5553 85.4024 88.2793 85.1464 88.0713C84.8984 87.8633 84.5624 87.7593 84.1384 87.7593C83.7464 87.7593 83.4344 87.8433 83.2024 88.0113C82.9704 88.1793 82.8544 88.3993 82.8544 88.6713C82.8544 88.8873 82.9224 89.0673 83.0584 89.2113C83.2024 89.3473 83.3784 89.4593 83.5864 89.5473C83.8024 89.6273 84.0984 89.7193 84.4744 89.8233C84.9464 89.9513 85.3304 90.0793 85.6264 90.2073C85.9224 90.3273 86.1744 90.5113 86.3824 90.7593C86.5984 91.0073 86.7104 91.3313 86.7184 91.7313C86.7184 92.0913 86.6184 92.4153 86.4184 92.7033C86.2184 92.9913 85.9344 93.2193 85.5664 93.3873C85.2064 93.5473 84.7904 93.6273 84.3184 93.6273Z" fill="#2D421E"/>
</svg>
