<svg width="124" height="106" viewBox="0 0 124 106" fill="none" xmlns="http://www.w3.org/2000/svg">
<rect width="124" height="106" rx="8" fill="#C4484F" fill-opacity="0.5"/>
<path d="M19.765 92.084C19.213 92.084 18.717 91.988 18.277 91.796C17.845 91.596 17.505 91.324 17.257 90.98C17.009 90.628 16.881 90.224 16.873 89.768H18.037C18.077 90.16 18.237 90.492 18.517 90.764C18.805 91.028 19.221 91.16 19.765 91.16C20.285 91.16 20.693 91.032 20.989 90.776C21.293 90.512 21.445 90.176 21.445 89.768C21.445 89.448 21.357 89.188 21.181 88.988C21.005 88.788 20.785 88.636 20.521 88.532C20.257 88.428 19.901 88.316 19.453 88.196C18.901 88.052 18.457 87.908 18.121 87.764C17.793 87.62 17.509 87.396 17.269 87.092C17.037 86.78 16.921 86.364 16.921 85.844C16.921 85.388 17.037 84.984 17.269 84.632C17.501 84.28 17.825 84.008 18.241 83.816C18.665 83.624 19.149 83.528 19.693 83.528C20.477 83.528 21.117 83.724 21.613 84.116C22.117 84.508 22.401 85.028 22.465 85.676H21.265C21.225 85.356 21.057 85.076 20.761 84.836C20.465 84.588 20.073 84.464 19.585 84.464C19.129 84.464 18.757 84.584 18.469 84.824C18.181 85.056 18.037 85.384 18.037 85.808C18.037 86.112 18.121 86.36 18.289 86.552C18.465 86.744 18.677 86.892 18.925 86.996C19.181 87.092 19.537 87.204 19.993 87.332C20.545 87.484 20.989 87.636 21.325 87.788C21.661 87.932 21.949 88.16 22.189 88.472C22.429 88.776 22.549 89.192 22.549 89.72C22.549 90.128 22.441 90.512 22.225 90.872C22.009 91.232 21.689 91.524 21.265 91.748C20.841 91.972 20.341 92.084 19.765 92.084ZM25.4879 86.324V90.2C25.4879 90.52 25.5559 90.748 25.6919 90.884C25.8279 91.012 26.0639 91.076 26.3999 91.076H27.2039V92H26.2199C25.6119 92 25.1559 91.86 24.8519 91.58C24.5479 91.3 24.3959 90.84 24.3959 90.2V86.324H23.5439V85.424H24.3959V83.768H25.4879V85.424H27.2039V86.324H25.4879ZM28.119 88.688C28.119 88.016 28.255 87.428 28.527 86.924C28.799 86.412 29.171 86.016 29.643 85.736C30.123 85.456 30.655 85.316 31.239 85.316C31.815 85.316 32.315 85.44 32.739 85.688C33.163 85.936 33.479 86.248 33.687 86.624V85.424H34.791V92H33.687V90.776C33.471 91.16 33.147 91.48 32.715 91.736C32.291 91.984 31.795 92.108 31.227 92.108C30.643 92.108 30.115 91.964 29.643 91.676C29.171 91.388 28.799 90.984 28.527 90.464C28.255 89.944 28.119 89.352 28.119 88.688ZM33.687 88.7C33.687 88.204 33.587 87.772 33.387 87.404C33.187 87.036 32.915 86.756 32.571 86.564C32.235 86.364 31.863 86.264 31.455 86.264C31.047 86.264 30.675 86.36 30.339 86.552C30.003 86.744 29.735 87.024 29.535 87.392C29.335 87.76 29.235 88.192 29.235 88.688C29.235 89.192 29.335 89.632 29.535 90.008C29.735 90.376 30.003 90.66 30.339 90.86C30.675 91.052 31.047 91.148 31.455 91.148C31.863 91.148 32.235 91.052 32.571 90.86C32.915 90.66 33.187 90.376 33.387 90.008C33.587 89.632 33.687 89.196 33.687 88.7ZM39.3124 86.324H37.9324V92H36.8404V86.324H35.9884V85.424H36.8404V84.956C36.8404 84.22 37.0284 83.684 37.4044 83.348C37.7884 83.004 38.4004 82.832 39.2404 82.832V83.744C38.7604 83.744 38.4204 83.84 38.2204 84.032C38.0284 84.216 37.9324 84.524 37.9324 84.956V85.424H39.3124V86.324ZM43.2616 86.324H41.8816V92H40.7896V86.324H39.9376V85.424H40.7896V84.956C40.7896 84.22 40.9776 83.684 41.3536 83.348C41.7376 83.004 42.3496 82.832 43.1896 82.832V83.744C42.7096 83.744 42.3696 83.84 42.1696 84.032C41.9776 84.216 41.8816 84.524 41.8816 84.956V85.424H43.2616V86.324ZM55.6421 85.304C56.1541 85.304 56.6101 85.412 57.0101 85.628C57.4101 85.836 57.7261 86.152 57.9581 86.576C58.1901 87 58.3061 87.516 58.3061 88.124V92H57.2261V88.28C57.2261 87.624 57.0621 87.124 56.7341 86.78C56.4141 86.428 55.9781 86.252 55.4261 86.252C54.8581 86.252 54.4061 86.436 54.0701 86.804C53.7341 87.164 53.5661 87.688 53.5661 88.376V92H52.4861V88.28C52.4861 87.624 52.3221 87.124 51.9941 86.78C51.6741 86.428 51.2381 86.252 50.6861 86.252C50.1181 86.252 49.6661 86.436 49.3301 86.804C48.9941 87.164 48.8261 87.688 48.8261 88.376V92H47.7341V85.424H48.8261V86.372C49.0421 86.028 49.3301 85.764 49.6901 85.58C50.0581 85.396 50.4621 85.304 50.9021 85.304C51.4541 85.304 51.9421 85.428 52.3661 85.676C52.7901 85.924 53.1061 86.288 53.3141 86.768C53.4981 86.304 53.8021 85.944 54.2261 85.688C54.6501 85.432 55.1221 85.304 55.6421 85.304ZM66.0973 88.46C66.0973 88.668 66.0853 88.888 66.0613 89.12H60.8053C60.8453 89.768 61.0653 90.276 61.4653 90.644C61.8733 91.004 62.3653 91.184 62.9413 91.184C63.4133 91.184 63.8053 91.076 64.1173 90.86C64.4373 90.636 64.6613 90.34 64.7893 89.972H65.9653C65.7893 90.604 65.4373 91.12 64.9093 91.52C64.3813 91.912 63.7253 92.108 62.9413 92.108C62.3173 92.108 61.7573 91.968 61.2613 91.688C60.7733 91.408 60.3893 91.012 60.1093 90.5C59.8293 89.98 59.6893 89.38 59.6893 88.7C59.6893 88.02 59.8253 87.424 60.0973 86.912C60.3693 86.4 60.7493 86.008 61.2373 85.736C61.7333 85.456 62.3013 85.316 62.9413 85.316C63.5653 85.316 64.1173 85.452 64.5973 85.724C65.0773 85.996 65.4453 86.372 65.7013 86.852C65.9653 87.324 66.0973 87.86 66.0973 88.46ZM64.9693 88.232C64.9693 87.816 64.8773 87.46 64.6933 87.164C64.5093 86.86 64.2573 86.632 63.9373 86.48C63.6253 86.32 63.2773 86.24 62.8933 86.24C62.3413 86.24 61.8693 86.416 61.4773 86.768C61.0933 87.12 60.8733 87.608 60.8173 88.232H64.9693ZM75.4467 85.304C75.9587 85.304 76.4147 85.412 76.8147 85.628C77.2147 85.836 77.5307 86.152 77.7627 86.576C77.9947 87 78.1107 87.516 78.1107 88.124V92H77.0307V88.28C77.0307 87.624 76.8667 87.124 76.5387 86.78C76.2187 86.428 75.7827 86.252 75.2307 86.252C74.6627 86.252 74.2107 86.436 73.8747 86.804C73.5387 87.164 73.3707 87.688 73.3707 88.376V92H72.2907V88.28C72.2907 87.624 72.1267 87.124 71.7987 86.78C71.4787 86.428 71.0427 86.252 70.4907 86.252C69.9227 86.252 69.4707 86.436 69.1347 86.804C68.7987 87.164 68.6307 87.688 68.6307 88.376V92H67.5387V85.424H68.6307V86.372C68.8467 86.028 69.1347 85.764 69.4947 85.58C69.8627 85.396 70.2667 85.304 70.7067 85.304C71.2587 85.304 71.7467 85.428 72.1707 85.676C72.5947 85.924 72.9107 86.288 73.1187 86.768C73.3027 86.304 73.6067 85.944 74.0307 85.688C74.4547 85.432 74.9267 85.304 75.4467 85.304ZM80.994 86.648C81.218 86.256 81.546 85.936 81.978 85.688C82.41 85.44 82.902 85.316 83.454 85.316C84.046 85.316 84.578 85.456 85.05 85.736C85.522 86.016 85.894 86.412 86.166 86.924C86.438 87.428 86.574 88.016 86.574 88.688C86.574 89.352 86.438 89.944 86.166 90.464C85.894 90.984 85.518 91.388 85.038 91.676C84.566 91.964 84.038 92.108 83.454 92.108C82.886 92.108 82.386 91.984 81.954 91.736C81.53 91.488 81.21 91.172 80.994 90.788V92H79.902V83.12H80.994V86.648ZM85.458 88.688C85.458 88.192 85.358 87.76 85.158 87.392C84.958 87.024 84.686 86.744 84.342 86.552C84.006 86.36 83.634 86.264 83.226 86.264C82.826 86.264 82.454 86.364 82.11 86.564C81.774 86.756 81.502 87.04 81.294 87.416C81.094 87.784 80.994 88.212 80.994 88.7C80.994 89.196 81.094 89.632 81.294 90.008C81.502 90.376 81.774 90.66 82.11 90.86C82.454 91.052 82.826 91.148 83.226 91.148C83.634 91.148 84.006 91.052 84.342 90.86C84.686 90.66 84.958 90.376 85.158 90.008C85.358 89.632 85.458 89.192 85.458 88.688ZM94.0114 88.46C94.0114 88.668 93.9994 88.888 93.9754 89.12H88.7194C88.7594 89.768 88.9794 90.276 89.3794 90.644C89.7874 91.004 90.2794 91.184 90.8554 91.184C91.3274 91.184 91.7194 91.076 92.0314 90.86C92.3514 90.636 92.5754 90.34 92.7034 89.972H93.8794C93.7034 90.604 93.3514 91.12 92.8234 91.52C92.2954 91.912 91.6394 92.108 90.8554 92.108C90.2314 92.108 89.6714 91.968 89.1754 91.688C88.6874 91.408 88.3034 91.012 88.0234 90.5C87.7434 89.98 87.6034 89.38 87.6034 88.7C87.6034 88.02 87.7394 87.424 88.0114 86.912C88.2834 86.4 88.6634 86.008 89.1514 85.736C89.6474 85.456 90.2154 85.316 90.8554 85.316C91.4794 85.316 92.0314 85.452 92.5114 85.724C92.9914 85.996 93.3594 86.372 93.6154 86.852C93.8794 87.324 94.0114 87.86 94.0114 88.46ZM92.8834 88.232C92.8834 87.816 92.7914 87.46 92.6074 87.164C92.4234 86.86 92.1714 86.632 91.8514 86.48C91.5394 86.32 91.1914 86.24 90.8074 86.24C90.2554 86.24 89.7834 86.416 89.3914 86.768C89.0074 87.12 88.7874 87.608 88.7314 88.232H92.8834ZM96.5448 86.492C96.7368 86.116 97.0088 85.824 97.3608 85.616C97.7208 85.408 98.1568 85.304 98.6688 85.304V86.432H98.3808C97.1568 86.432 96.5448 87.096 96.5448 88.424V92H95.4528V85.424H96.5448V86.492ZM102.257 92.108C101.753 92.108 101.301 92.024 100.901 91.856C100.501 91.68 100.185 91.44 99.9534 91.136C99.7214 90.824 99.5934 90.468 99.5694 90.068H100.697C100.729 90.396 100.881 90.664 101.153 90.872C101.433 91.08 101.797 91.184 102.245 91.184C102.661 91.184 102.989 91.092 103.229 90.908C103.469 90.724 103.589 90.492 103.589 90.212C103.589 89.924 103.461 89.712 103.205 89.576C102.949 89.432 102.553 89.292 102.017 89.156C101.529 89.028 101.129 88.9 100.817 88.772C100.513 88.636 100.249 88.44 100.025 88.184C99.8094 87.92 99.7014 87.576 99.7014 87.152C99.7014 86.816 99.8014 86.508 100.001 86.228C100.201 85.948 100.485 85.728 100.853 85.568C101.221 85.4 101.641 85.316 102.113 85.316C102.841 85.316 103.429 85.5 103.877 85.868C104.325 86.236 104.565 86.74 104.597 87.38H103.505C103.481 87.036 103.341 86.76 103.085 86.552C102.837 86.344 102.501 86.24 102.077 86.24C101.685 86.24 101.373 86.324 101.141 86.492C100.909 86.66 100.793 86.88 100.793 87.152C100.793 87.368 100.861 87.548 100.997 87.692C101.141 87.828 101.317 87.94 101.525 88.028C101.741 88.108 102.037 88.2 102.413 88.304C102.885 88.432 103.269 88.56 103.565 88.688C103.861 88.808 104.113 88.992 104.321 89.24C104.537 89.488 104.649 89.812 104.657 90.212C104.657 90.572 104.557 90.896 104.357 91.184C104.157 91.472 103.873 91.7 103.505 91.868C103.145 92.028 102.729 92.108 102.257 92.108Z" fill="#9C3535"/>
<g clip-path="url(#clip0_140_887)">
<path d="M74.3043 43.7828C73.0207 43.3535 72.1503 42.7571 71.7609 42.0457L74.4392 35.3414V35.1355C74.4392 31.5949 68.4257 29.7424 62.4856 29.7424C56.5455 29.7424 50.532 31.5947 50.532 35.1355V35.3414L53.2223 42.0759C52.8252 42.774 51.9619 43.3596 50.6958 43.7828C45.0085 45.6837 44.7276 50.6536 45.1179 54.7707C45.304 56.7328 46.7788 59.0716 52.7479 59.0716C52.9011 59.0716 53.0522 59.0699 53.1994 59.0672C53.6242 59.0588 54.023 58.897 54.3507 58.6166C56.0652 62.3414 59.0426 65.2581 62.5144 65.2581C66.0521 65.2581 69.0765 62.2296 70.7745 58.4034C71.1751 58.8271 71.7015 59.072 72.2629 59.072H72.264C78.2235 59.0685 79.6963 56.7312 79.8824 54.7709C80.2724 50.6536 79.9915 45.6837 74.3043 43.7828ZM72.8414 34.9714L70.6154 40.5433C69.2203 39.4028 66.8513 38.6203 64.1081 38.3851V36.441L65.7713 36.4391C66.0851 36.4388 66.3395 36.1404 66.3392 35.7728L66.338 34.09C66.3376 33.7222 66.0829 33.4243 65.7689 33.4247L64.1082 33.4266V31.6421C69.2788 31.9469 72.5802 33.6696 72.8414 34.9714ZM61.3397 31.618V33.4295L59.6764 33.4314C59.3624 33.4318 59.1082 33.7301 59.1085 34.0978L59.1098 35.7805C59.1101 36.1484 59.3648 36.4462 59.6788 36.4458L61.3395 36.444V38.3371C58.4135 38.4825 55.8394 39.2423 54.2988 40.4013L52.1297 34.9714C52.3991 33.6301 55.8959 31.8419 61.3397 31.618ZM62.5144 63.4058C59.2285 63.4058 56.4106 60.0245 55.1223 56.1498C55.0876 55.9857 55.037 55.8257 54.9717 55.6721C54.6977 54.7496 54.5115 53.8067 54.4268 52.8803C54.5613 52.775 54.7134 52.6886 54.8514 52.6238C57.4525 51.3998 60.9447 48.5909 62.5002 44.9744C64.0556 48.5909 67.5478 51.3998 70.1489 52.6238C70.2954 52.6927 70.4592 52.7853 70.6001 52.9005C70.1343 57.9089 66.7044 63.4058 62.5144 63.4058Z" fill="#9C3535"/>
</g>
<defs>
<clipPath id="clip0_140_887">
<rect width="35" height="41" fill="white" transform="translate(45 27)"/>
</clipPath>
</defs>
</svg>
